<svg xmlns="http://www.w3.org/2000/svg" viewBox="0 0 62 62"><defs><style>.cls-1{fill:#fff;}.cls-1,.cls-2{stroke:#011d35;stroke-miterlimit:10;stroke-width:2px;}.cls-2{fill:#011d35;}</style></defs><title>Recurso 1</title><g id="Capa_2" data-name="Capa 2"><g id="Capa_1-2" data-name="Capa 1"><g id="Capa_1-2-2" data-name="Capa 1-2"><g id="Capa_1-2-2-2" data-name="Capa 1-2-2"><g id="Capa_4" data-name="Capa 4"><g id="Capa_1-2-2-2-2" data-name="Capa 1-2-2-2"><path class="cls-1" d="M30.58,22c-3.67-.36-7.68-.22-11.5-1.48a8.81,8.81,0,0,1-3.68-2.05c-.57-.6-1.12-1.36-.44-1.94,1.51-1.27,1.58-3,2.11-4.53a13.52,13.52,0,0,1,4.79-6.45c.42-.3.86-.8,1.51-.47.47.26.28.8.4,1.21.27.88-.7,2.52.76,2.5,1.09,0,.68-1.81.53-2.68C24.5,3,27.73,2.53,29.47,1.34c1.28-.8,3.13-.07,5,.94,2.73,1.49,2.68,3.27,2.63,5.42,0,.56,0,1.31.9,1.24.71,0,.6-.72.72-1.2.18-.89-.53-2.25.53-2.54s1.81,1,2.57,1.7a12,12,0,0,1,3.48,5.9,5.78,5.78,0,0,0,1.81,3.46c1.38,1.17.17,2.12-.88,2.8-2.49,1.68-5.51,2.12-8.49,2.47C35.45,21.82,33.16,21.85,30.58,22Z"/><path class="cls-1" d="M30.87,40.9c-4.66-.26-7.57-2.7-9.6-6.17a32.52,32.52,0,0,0-2.63-4.14,8.77,8.77,0,0,1-2-6.83c.21-1.49.9-2.21,2.78-1.81a51.23,51.23,0,0,0,23,0c2.2-.47,3.07.24,3.25,2a4.58,4.58,0,0,1,0,1.95,30.33,30.33,0,0,1-8.48,13A8.65,8.65,0,0,1,30.87,40.9Z"/><path class="cls-1" d="M31.43,52.9c5.47,0,10.94.07,16.4,0,2.26,0,3,.69,2.93,2.67-.09,5.29.13,4.28-4.58,4.73a155.07,155.07,0,0,1-31.73-.15c-1.85-.2-2.5-.88-2.55-2.49-.16-4.69-.21-4.69,5.09-4.69Z"/><path class="cls-1" d="M31,50.7c-3.25,0-6.51-.05-9.77,0-2.11,0-3.16-.6-3-2.63.14-2.45.05-4.92,0-7.39,0-1.21,0-2.28,1.63-2.8s2.05.47,2.81,1.17C27.9,44,34.88,43.87,40,38.81c.67-.65,1.16-1.37,2.41-.94A2.12,2.12,0,0,1,44,40.22c-.07,2.75-.1,5.51,0,8.26.05,1.6-.69,2.22-2.44,2.2C38,50.67,34.51,50.7,31,50.7Z"/><path class="cls-2" d="M31.41,48.11H24.56c-1.48,0-2.22-.2-2.13-.94a23.78,23.78,0,0,0,0-2.67c0-.44,0-.83,1.15-1a2.55,2.55,0,0,1,2,.43,14.31,14.31,0,0,0,12.15-.09,2.2,2.2,0,0,1,1.69-.34c.88.16,1.13.44,1.11.85a24.69,24.69,0,0,0,0,3c0,.6-.49.8-1.71.8Z"/><path class="cls-1" d="M14.56,44.52a16.64,16.64,0,0,0,0,1.73c.25,2.15,0,3.78-3.16,3.91a3,3,0,0,0-2.76,2.92c-.06.94-.08,1.87-.05,2.8,0,3.38-.17,3.48-3.88,2.41s-4.15-1.66-3.41-5C2.61,47.41,5.47,42.49,12.11,40c2.26-.84,2.41-.78,2.41,1.47C14.56,42.49,14.56,43.5,14.56,44.52Z"/><path class="cls-1" d="M47.56,44.64h0c0-1,0-2,0-3C47.49,40,48,39.38,50,40.14c6.85,2.64,11.2,8.7,11,15.32-.05,1.76-4.16,4.12-6,3.45a.94.94,0,0,1-.6-1V55.45c0-4.08-.56-4.69-5-5.42-1.74-.27-2.37-1-1.51-3.7A1.83,1.83,0,0,0,47.79,45a2.11,2.11,0,0,0-.21-.31Z"/></g></g></g></g></g></g></svg>