<svg xmlns="http://www.w3.org/2000/svg" viewBox="0 0 40.5 40.5"><defs><style>.cls-1{fill:#fff;}.cls-1,.cls-2{stroke:#011d35;stroke-miterlimit:10;stroke-width:0.5px;}.cls-2{fill:#011d35;}</style></defs><title>Recurso 2</title><g id="Capa_2" data-name="Capa 2"><g id="Capa_1-2" data-name="Capa 1"><g id="Capa_1-2-2" data-name="Capa 1-2"><g id="Capa_1-2-2-2" data-name="Capa 1-2-2"><g id="Capa_4" data-name="Capa 4"><g id="Capa_1-2-2-2-2" data-name="Capa 1-2-2-2"><path class="cls-1" d="M20,14.25c-2.44-.24-5.12-.15-7.67-1A5.93,5.93,0,0,1,9.85,11.9c-.38-.41-.75-.91-.29-1.3,1-.84,1-2,1.4-3a9,9,0,0,1,3.2-4.29c.28-.21.57-.54,1-.32s.19.54.27.81c.18.59-.46,1.68.51,1.66.72,0,.45-1.2.35-1.79-.37-2,1.78-2.38,2.94-3.17.85-.54,2.09,0,3.31.62,1.82,1,1.79,2.19,1.75,3.61,0,.38,0,.88.61.84.47,0,.4-.49.48-.81.12-.59-.35-1.5.35-1.69s1.2.66,1.71,1.13a8.07,8.07,0,0,1,2.33,3.94,3.81,3.81,0,0,0,1.2,2.3c.92.78.11,1.42-.58,1.87a12.61,12.61,0,0,1-5.67,1.65C23.21,14.13,21.69,14.15,20,14.25Z"/><path class="cls-1" d="M20.16,26.85a7.55,7.55,0,0,1-6.4-4.11A20.76,20.76,0,0,0,12,20a5.84,5.84,0,0,1-1.31-4.56c.14-1,.6-1.47,1.85-1.2a34.16,34.16,0,0,0,15.32,0c1.47-.32,2.05.16,2.17,1.35a3.17,3.17,0,0,1,0,1.3,20.18,20.18,0,0,1-5.65,8.68A5.77,5.77,0,0,1,20.16,26.85Z"/><path class="cls-1" d="M20.54,34.85c3.64,0,7.29,0,10.93,0,1.51,0,2,.47,2,1.79-.07,3.52.08,2.85-3.06,3.14a103.11,103.11,0,0,1-21.15-.09C8,39.52,7.55,39.07,7.51,38c-.1-3.13-.13-3.13,3.4-3.13Z"/><path class="cls-1" d="M20.27,33.39c-2.17,0-4.35,0-6.52,0-1.41,0-2.11-.41-2-1.76.09-1.63,0-3.28,0-4.93,0-.8,0-1.52,1.09-1.86s1.37.31,1.88.77a7.89,7.89,0,0,0,11.51-.15c.45-.44.78-.91,1.61-.63a1.41,1.41,0,0,1,1,1.56c0,1.84-.07,3.68,0,5.51,0,1.07-.46,1.49-1.62,1.47Z"/><path class="cls-2" d="M20.53,31.66H16c-1,0-1.47-.13-1.41-.63a17.61,17.61,0,0,0,0-1.78c0-.29,0-.55.76-.68a1.68,1.68,0,0,1,1.32.29,9.56,9.56,0,0,0,8.1-.06,1.45,1.45,0,0,1,1.13-.23c.58.1.75.29.73.57a16.35,16.35,0,0,0,0,2c0,.41-.32.54-1.14.54Z"/><path class="cls-1" d="M9.29,29.26a11,11,0,0,0,0,1.15c.16,1.44,0,2.53-2.11,2.61A2,2,0,0,0,5.34,35c0,.63,0,1.25,0,1.87,0,2.25-.11,2.32-2.59,1.61S0,37.34.45,35.09c.88-3.9,2.78-7.18,7.21-8.83,1.5-.56,1.61-.52,1.61,1C9.29,27.91,9.29,28.59,9.29,29.26Z"/><path class="cls-1" d="M31.29,29.35h0c0-.68,0-1.34,0-2-.05-1.12.32-1.5,1.61-1,4.57,1.75,7.46,5.79,7.35,10.21,0,1.17-2.78,2.75-4,2.3a.64.64,0,0,1-.4-.7V36.55c0-2.72-.37-3.12-3.35-3.61-1.16-.18-1.58-.69-1-2.47a1.18,1.18,0,0,0-.08-.9.77.77,0,0,0-.14-.21Z"/></g></g></g></g></g></g></svg>