<svg xmlns="http://www.w3.org/2000/svg" viewBox="0 0 40.5 40.5"><defs><style>.cls-1{fill:#011d35;}.cls-1,.cls-3{stroke:#011d35;}.cls-1,.cls-2,.cls-3{stroke-miterlimit:10;stroke-width:0.5px;}.cls-2,.cls-3{fill:#fff;}.cls-2{stroke:#0d1700;}</style></defs><title>Recurso 3</title><g id="Capa_2" data-name="Capa 2"><g id="Capa_1-2" data-name="Capa 1"><g id="Capa_1-2-2" data-name="Capa 1-2"><g id="Capa_3" data-name="Capa 3"><ellipse class="cls-1" cx="19.93" cy="31.81" rx="7.84" ry="8.14"/><g id="Capa_1-2-2-2" data-name="Capa 1-2-2"><path class="cls-2" d="M16.43,40.22l-2.15-.14A47.49,47.49,0,0,1,3.17,38.44,6.61,6.61,0,0,1,.88,37.32,1.47,1.47,0,0,1,.25,36,8.13,8.13,0,0,1,2.08,31.6a21.41,21.41,0,0,1,10.65-7.11,18.32,18.32,0,0,1,2-.57c.1,0,.24,0,.28-.12s-.12-.15-.2-.2a11.72,11.72,0,0,1-5.57-8.09A.76.76,0,0,0,9,15a1.18,1.18,0,0,1-.48-1V8.55a.73.73,0,0,0-.65-.8h0C5.69,7.18,3.64,6.55,1.58,6a.81.81,0,0,1-.33-.14c0-.16.2-.15.32-.18L19.86.31a1.2,1.2,0,0,1,.75,0L38.93,5.62c.12,0,.26,0,.33.15-.09.16-.28.16-.44.2-2.09.61-4.16,1.23-6.25,1.81a.62.62,0,0,0-.59.65v.05c0,1.81,0,3.64,0,5.46A1.19,1.19,0,0,1,31.47,15c-.35.24-.28.57-.35.86a11.73,11.73,0,0,1-5.36,7.69c-.11.08-.35.12-.3.26s.26.12.4.16c5.28,1.31,9.52,3.77,12.51,7.59a8.77,8.77,0,0,1,1.85,4.06A1.91,1.91,0,0,1,39,37.74,13.56,13.56,0,0,1,35.31,39a48.5,48.5,0,0,1-6.9.94c-1.45.11-2.9.2-4.35.29Zm1.1-15.1a15.7,15.7,0,0,0,1.26,1.17.55.55,0,0,1,.2.76.21.21,0,0,1,0,.06c-1.44,2.8-2.86,5.6-4.29,8.4a.44.44,0,0,0,.11.61l0,0c1.63,1.3,3.24,2.6,4.83,3.92.3.25.46.23.76,0,1.57-1.31,3.15-2.59,4.75-3.86a.52.52,0,0,0,.22-.71l0-.07c-1.42-2.75-2.8-5.52-4.24-8.27a.64.64,0,0,1,.17-.9l0,0c.4-.34.76-.72,1.13-1.08a12,12,0,0,1-4.91,0Z"/><path class="cls-3" d="M5.67,12.88v4.28c.28.25.39.49.59.64a.92.92,0,0,1,.2,1.27,1.89,1.89,0,0,1-.2.2h0a1.58,1.58,0,0,1-1.85.06A.92.92,0,0,1,4,18.1c0-.08.09-.15.15-.25h0a.67.67,0,0,0,.26-.78V8.38c.09-.58.09-.58.76-.43S6,8,6,8.75A20.57,20.57,0,0,1,5.67,12.88Z"/></g></g></g></g></g></svg>