<svg xmlns="http://www.w3.org/2000/svg" viewBox="0 0 948.91 355.76"><defs><style>.cls-1,.cls-8,.cls-9{fill:#fff;}.cls-1,.cls-13,.cls-14{stroke:#000;}.cls-1,.cls-10,.cls-12,.cls-13,.cls-14,.cls-15,.cls-2,.cls-4,.cls-5,.cls-9{stroke-miterlimit:10;}.cls-1,.cls-13,.cls-4{stroke-width:0.5px;}.cls-12,.cls-14,.cls-15,.cls-2,.cls-6{fill:none;}.cls-2{stroke:#6f751c;}.cls-15,.cls-2{stroke-width:5px;}.cls-3{fill:#fcfcfc;}.cls-4,.cls-5,.cls-7{fill:#35001d;}.cls-10,.cls-12,.cls-15,.cls-4,.cls-5,.cls-9{stroke:#35001d;}.cls-10{fill:#f7f7f7;}.cls-11{fill:#698b00;}.cls-13{fill:#047dbe;}</style></defs><title>ALIS ESCUDO SILUETA</title><g id="Capa_15" data-name="Capa 15"><polygon class="cls-1" points="82.87 77.19 205.87 79.19 206.87 207.19 81.87 210.19 82.87 77.19"/></g><g id="CAPA_TRUCHA" data-name="CAPA TRUCHA"><path class="cls-2" d="M196.5,354.5" transform="translate(-52.13 -80.81)"/><path class="cls-3" d="M197,339l-29-11-32-9q-1-34.5-2-69h63Z" transform="translate(-52.13 -80.81)"/><path class="cls-4" d="M183.33,272.94c0-.72,5.55-3,7.71-2.9,0,0,4.35-.53-2.33-4.07s-12.45-11.38-35.41,1.29a12.07,12.07,0,0,0-9.7-.8l1.06.41s-4,1.62-1.61,3.53l-1.88,1.72s-1.13,1-.41,1.07c0,0-2.61,1.68-2.64,2.4,0,0,8.8-3.21,8.77-2.49,0,0-8.26,14.42-4.41,24.69a19.86,19.86,0,0,0,12.31,14.26s9.59,2.95,13.77-1.55c0,0-4,.9-11.52-8.09,0,0-.65-1.47-.82,2.13,0,0,.62,2.19-2.7,3.84,0,0-4.32-.19-4.39-6.33,0,0,.3-6.47,3.7-9.57,0,0,.34.38-.48,2.51l1.09-.31,0,.71.75-.68.69.75.38-.34.34.37.38-.34.68.75s0-6.85-.75-6.89c0,0,7.23-8,9-6.81,0,0-3.77,5.44-5.25,6.1,0,0,4.25,1.63,4.63,1.29,0,0,.31,1.09.69.75,0,0,5.24-6.09,5.44-10.41,0,0,1.51-1.38,7.68-2.18,0,0,3.26-.22,3.63-.56,0,0,4.29.91,9.22-4.27,0,0,0-.72-4,1.62C186.86,274.54,183.3,273.66,183.33,272.94Z" transform="translate(-52.13 -80.81)"/><path class="cls-5" d="M180.34,272.76s5.1-2.3,6.94-2.47c0,0-.2-.89-7,2C180.24,272.32,179.44,273,180.34,272.76Z" transform="translate(-52.13 -80.81)"/><path class="cls-5" d="M177.54,263.28s-6.3,7,1.46,8.14C179,271.42,174.2,268.08,177.54,263.28Z" transform="translate(-52.13 -80.81)"/><path class="cls-5" d="M173.9,262.2s-21.61,11.58-1,13.07C169.21,277.12,148.13,274.06,173.9,262.2Z" transform="translate(-52.13 -80.81)"/><path class="cls-5" d="M175.31,263.38s-10.57,7.59.62,10.65C174.11,275.22,162.53,270.84,175.31,263.38Z" transform="translate(-52.13 -80.81)"/><circle class="cls-5" cx="130.63" cy="185.66" r="1.77"/><path class="cls-5" d="M182.16,273.57s2.53,1.65,3.58,1.54c0,0,.8.68-2-.18l-2.66-1.25S181.23,273.28,182.16,273.57Z" transform="translate(-52.13 -80.81)"/></g><g id="CAPA_SALUDO" data-name="CAPA SALUDO"><polygon class="cls-6" points="144.87 78.19 205.87 79.19 206.87 168.19 144.87 169.19 144.87 78.19"/><polygon class="cls-5" points="148.14 107.19 160.25 113.25 152.99 132.64 140.87 127.79 148.14 107.19"/><ellipse class="cls-5" cx="147.93" cy="127.18" rx="1.21" ry="1.82"/><ellipse class="cls-5" cx="151.77" cy="128.4" rx="1.21" ry="1.82"/><polygon class="cls-5" points="190.7 111.25 201.6 105.19 207.37 125.69 196.75 129.43 190.7 111.25"/><ellipse class="cls-5" cx="202.81" cy="125.18" rx="1.21" ry="1.82"/><ellipse class="cls-5" cx="199.18" cy="126.4" rx="1.21" ry="1.82"/><path class="cls-7" d="M214.38,195.27l4.85-2.42s0-1.22,6.06,1.21c0,0-3.64,0-6.06,4.84l-2.42,3.64S215.6,205,219.23,205h0s4.56.25,5.77-1c0,0,4.37-2.63,8,1l2,2,9,9s.42,4.21-2,3l-9-10s-1.65.81-.44,2L241,221s.42,2-2,2l-8.87-9.56s-2.42-1.21-1.21,1.21L238,225s-.18,2-2,2l-5-5a4.94,4.94,0,0,0-3-1c-.13,0,0-.87,0-1,0-1-.52-1.22-1-2a2.48,2.48,0,0,0-3-1c.11-.94-.21-2.5-1-3s-3-1-3.77-.56a3.7,3.7,0,0,0-1.38-2.95,3.46,3.46,0,0,0-2.25-.68A18.45,18.45,0,0,0,213,211a34.67,34.67,0,0,0-4,5l-2-2Z" transform="translate(-52.13 -80.81)"/><ellipse class="cls-7" cx="214.05" cy="215.57" rx="3.96" ry="2.16" transform="translate(-140.18 166.75) rotate(-51.25)"/><ellipse class="cls-7" cx="222.56" cy="223.95" rx="4.73" ry="1.8" transform="translate(-143.53 176.52) rotate(-51.25)"/><ellipse class="cls-7" cx="219.15" cy="219.62" rx="3.88" ry="2.16" transform="translate(-141.43 172.24) rotate(-51.25)"/><ellipse class="cls-7" cx="227.26" cy="227.04" rx="4.26" ry="2.08" transform="translate(-144.18 181.34) rotate(-51.25)"/><path class="cls-7" d="M234.56,228.35s-2.43,3.63-4.85,2.42c0,0,3.64-2.42,2.42-4.85Z" transform="translate(-52.13 -80.81)"/><path class="cls-7" d="M244.25,212.44l2.42-1.21-6-17s-6.06-2.42-9.7-1.21h0s-6,1.21-7.27,3.63h0L220,201.54s-1.21,1.21,1.21,1.21c0,0,4.85,0,6.06-2.42,0,0,1.21-1.21,3.63,0l3.64,1.21Z" transform="translate(-52.13 -80.81)"/></g><g id="Capa_8" data-name="Capa 8"><path class="cls-8" d="M237.5,315.5l21-1v-46l-10-8s-3-8-6-3S239,259,236,270c0,0-1,8-10,14l-1,32Z" transform="translate(-52.13 -80.81)"/><path class="cls-7" d="M225,284s8-5,9-11c0,0,4-11,5-12,0,0,4-5,4-6,0,0,1-2,3,0h0a18.93,18.93,0,0,1,4,6s5,5,7,5v4s-2-4-4-5a39.87,39.87,0,0,1-4-3,3.49,3.49,0,0,0-2-1,3.49,3.49,0,0,1-1-2,1,1,0,0,0-1-1s-1,1,0,3c0,0,2,1,2,2a1,1,0,0,0,1,1l1,1h-4s-1,0,0-1c0,0,1,0-1-2,0,0-1-5-2-2,0,0,0,6-2,8,0,0-4,6-3,7,0,0-1,2,0-2,0,0,5-11,3-11,0,0-1-1-3,7,0,0-3,10-6,12l-5,4Z" transform="translate(-52.13 -80.81)"/><path class="cls-7" d="M239,281s5-6,5-10c0,0-2-6,8-3,0,0,8,22,1,16s-8,1-9,1c0,0-4,2-4,4l-2,3s-3,1-1-1,2-4,3-5a11,11,0,0,0,3-7Z" transform="translate(-52.13 -80.81)"/></g><g id="SILUETA_ANDENES" data-name="SILUETA ANDENES"><path class="cls-9" d="M199,273l16-8s12.56,5.15,10,7c0,0-20.68,13.11-27,13C198,285,198.05,273.3,199,273Z" transform="translate(-52.13 -80.81)"/><path class="cls-9" d="M208,332s5-39,21-38,15.56.15,13,2c0,0-16,23.61-17.09,28.24a4.55,4.55,0,0,1-1.86,2.78C221,328.44,216.71,330.37,208,332Z" transform="translate(-52.13 -80.81)"/><path class="cls-9" d="M224,327s3-21,19-20,15.5,7.5,12,10c0,0-8.5,5.5-17,8-.26,1.13-2.05.35-3,1C232.92,327.42,232.71,325.37,224,327Z" transform="translate(-52.13 -80.81)"/><path class="cls-10" d="M199,300l26-24s5.56,5.15,3,7c0,0-21,45-19,48C209,331,189,356,199,300Z" transform="translate(-52.13 -80.81)"/><path class="cls-9" d="M199,259s16,2,16,0c0,0,1,6,0,7,0,0-15,9-16,7S199,259,199,259Z" transform="translate(-52.13 -80.81)"/><path class="cls-7" d="M199.44,259.14a1.63,1.63,0,0,0,.23,2.34l1.28,1.06s3.4-1.51,2.11-2.57a5.84,5.84,0,0,0-3.62-.83" transform="translate(-52.13 -80.81)"/><path class="cls-7" d="M206.64,260a1.63,1.63,0,0,0-1.62,1.31.74.74,0,0,1-.29.51l-1.24.84a.3.3,0,0,0,.08.53c1.36.44,4.7,1.39,4.7.08a5.73,5.73,0,0,0-1.63-3.27" transform="translate(-52.13 -80.81)"/><path class="cls-7" d="M200.09,267.78s1.79.91,2.53-.55l.74-1.46s-2.83-3.27-3.57-1.81.3,3.82.3,3.82" transform="translate(-52.13 -80.81)"/><path class="cls-7" d="M199.72,271.56a1.59,1.59,0,0,0,2,1.11l1.57-.45s.66-3.6-.91-3.15a5.71,5.71,0,0,0-2.68,2.49" transform="translate(-52.13 -80.81)"/><path class="cls-7" d="M207.64,265a1.63,1.63,0,0,0-1.62,1.31.74.74,0,0,1-.29.51l-1.24.84a.3.3,0,0,0,.08.53c1.36.44,4.7,1.39,4.7.08a5.73,5.73,0,0,0-1.63-3.27" transform="translate(-52.13 -80.81)"/><path class="cls-7" d="M210.3,259.9a1.63,1.63,0,0,0-.51,2,.7.7,0,0,1,.07.58l-.49,1.42a.3.3,0,0,0,.38.38c1.35-.47,6-2.26,5.25-3.3-1-1.31-4.7-1.1-4.7-1.1" transform="translate(-52.13 -80.81)"/><path class="cls-7" d="M213.64,264a1.63,1.63,0,0,0-1.62,1.31.74.74,0,0,1-.29.51l-1.24.84a.3.3,0,0,0,.08.53c1.36.44,4.43-.89,4.43-2.19,0-1.64-1.36-1-1.36-1" transform="translate(-52.13 -80.81)"/><path class="cls-9" d="M199,284s26-11,26-13c0,0,1,6,0,7,0,0-25,24-26,22S199,284,199,284Z" transform="translate(-52.13 -80.81)"/><path class="cls-7" d="M200.44,284.14a1.63,1.63,0,0,0,.23,2.34l1.28,1.06s3.4-1.51,2.11-2.57a5.84,5.84,0,0,0-3.62-.83" transform="translate(-52.13 -80.81)"/><path class="cls-7" d="M207.64,285a1.63,1.63,0,0,0-1.62,1.31.74.74,0,0,1-.29.51l-1.24.84a.3.3,0,0,0,.08.53c1.36.44,4.7,1.39,4.7.08a5.73,5.73,0,0,0-1.63-3.27" transform="translate(-52.13 -80.81)"/><path class="cls-7" d="M201.09,292.78s1.79.91,2.53-.55l.74-1.46s-2.83-3.27-3.57-1.81.3,3.82.3,3.82" transform="translate(-52.13 -80.81)"/><path class="cls-7" d="M199.72,296.56a1.59,1.59,0,0,0,2,1.11l1.57-.45s.66-3.6-.91-3.15a5.71,5.71,0,0,0-2.68,2.49" transform="translate(-52.13 -80.81)"/><path class="cls-7" d="M208,290s-1.77-1-2,.31a.74.74,0,0,1-.29.51l-1.24.84A8.85,8.85,0,0,0,205,295c1.36.44,4-3,5-4,1.16-1.16-2-1-2-1" transform="translate(-52.13 -80.81)"/><path class="cls-7" d="M211.3,284.9a1.63,1.63,0,0,0-.51,2,.7.7,0,0,1,.07.58l-.49,1.42a.3.3,0,0,0,.38.38c1.35-.47,6-3.26,5.25-4.3-1-1.31-4.7-.1-4.7-.1" transform="translate(-52.13 -80.81)"/><path class="cls-7" d="M207.64,281a1.63,1.63,0,0,0-1.62,1.31.74.74,0,0,1-.29.51l-1.24.84a.3.3,0,0,0,.08.53c1.36.44,4.43-.89,4.43-2.19,0-1.64-1.36-1-1.36-1" transform="translate(-52.13 -80.81)"/><path class="cls-7" d="M210.3,279.9a1.63,1.63,0,0,0-.51,2,.7.7,0,0,1,.07.58l-.49,1.42a.3.3,0,0,0,.38.38c1.35-.47,6-3.26,5.25-4.3-1-1.31-4.7-.1-4.7-.1" transform="translate(-52.13 -80.81)"/><path class="cls-7" d="M217.3,278.9a3.06,3.06,0,0,0-.51,2c0,.31.11.39.07.58-.21,1.05-2.88,1.2-2.86,1.5s1.28.54,2.75.3c3.12-.52,5.85-3.5,5.25-4.3-1-1.3-4.64-.12-4.7-.1h0" transform="translate(-52.13 -80.81)"/><path class="cls-7" d="M219.1,277.52a1.61,1.61,0,0,0,2-.4.72.72,0,0,1,.5-.31l1.48-.17a.3.3,0,0,0,.19-.5c-1-1-4.34-1.29-4.95-.14-.76,1.45.74,1.52.74,1.52" transform="translate(-52.13 -80.81)"/><path class="cls-9" d="M207,312c0-3,7-23,22-30-1,3,1,12,1,12-7,1-20,28-21,36C208.72,332.22,207,315,207,312Z" transform="translate(-52.13 -80.81)"/><path class="cls-7" d="M209.44,305.14a1.63,1.63,0,0,0,.23,2.34l1.28,1.06s3.4-1.51,2.11-2.57a5.84,5.84,0,0,0-3.62-.83" transform="translate(-52.13 -80.81)"/><path class="cls-7" d="M215.64,297a1.63,1.63,0,0,0-1.62,1.31.74.74,0,0,1-.29.51l-1.24.84a.3.3,0,0,0,.08.53c1.36.44,4.7,1.39,4.7.08a5.73,5.73,0,0,0-1.63-3.27" transform="translate(-52.13 -80.81)"/><path class="cls-7" d="M208.09,314.78s1.79.91,2.53-.55l.74-1.46s-2.83-3.27-3.57-1.81.3,3.82.3,3.82" transform="translate(-52.13 -80.81)"/><path class="cls-7" d="M221.89,288.74s.21,2.49,1.82,2.17l3.63-3.48s1-3.53-.63-3.21-4.82,4.52-4.82,4.52" transform="translate(-52.13 -80.81)"/><path class="cls-7" d="M220,292s-1.77-1-2,.31a.74.74,0,0,1-.29.51l-1.24.84A8.85,8.85,0,0,0,217,297c1.36.44,4-3,5-4,1.16-1.16-2-1-2-1" transform="translate(-52.13 -80.81)"/><path class="cls-7" d="M211.85,309.56a1.61,1.61,0,0,0,.38,2,.77.77,0,0,1,.31.51l.15,1.48a.3.3,0,0,0,.5.19c1-1,4.12-5.47,3-6.1-1.43-.78-4.31,1.88-4.31,1.88" transform="translate(-52.13 -80.81)"/><path class="cls-7" d="M208.34,317.77a1.62,1.62,0,0,0-.33,2.05.69.69,0,0,1,.13.57l-.36,1.46a.3.3,0,0,0,.41.34c1.3-.58,2.7-3.62,1.83-4.59-1.09-1.22-1.68.17-1.68.17" transform="translate(-52.13 -80.81)"/><path class="cls-7" d="M215.55,302.4a1.62,1.62,0,0,0,.19,2.07.75.75,0,0,1,.26.53v1.5a.3.3,0,0,0,.48.23c1.12-.89,4.61-5.07,3.53-5.8-1.36-.91-4.47,1.47-4.47,1.47" transform="translate(-52.13 -80.81)"/><path class="cls-7" d="M221.3,294.9a3.06,3.06,0,0,0-.51,2c0,.31.11.39.07.58-.21,1.05-2.88,1.2-2.86,1.5s1.28.54,2.75.3c3.12-.52,5.85-3.5,5.25-4.3-1-1.3-4.64-.12-4.7-.1h0" transform="translate(-52.13 -80.81)"/><path class="cls-7" d="M211,302.85a1.62,1.62,0,0,0,1.52,1.42.68.68,0,0,1,.54.22l1,1.1a.29.29,0,0,0,.51-.14c.25-1.41-1.49-4.27-2.78-4.09-1.62.23-.8,1.49-.8,1.49" transform="translate(-52.13 -80.81)"/><path class="cls-7" d="M226.64,290a1.63,1.63,0,0,0-1.62,1.31.74.74,0,0,1-.29.51l-1.24.84a.3.3,0,0,0,.08.53c1.36.44,4.7,1.39,4.7.08a5.73,5.73,0,0,0-1.63-3.27" transform="translate(-52.13 -80.81)"/><path class="cls-9" d="M223,317c0-3,5-15,20-22-1,3,1,12,1,12-7,1-18,9-19,17C224.72,326.22,223,320,223,317Z" transform="translate(-52.13 -80.81)"/><path class="cls-5" d="M227.64,311a1.63,1.63,0,0,0-1.62,1.31.74.74,0,0,1-.29.51l-1.24.84a.3.3,0,0,0,.08.53c1.36.44,4.7,1.39,4.7.08a5.73,5.73,0,0,0-1.63-3.27" transform="translate(-52.13 -80.81)"/><path class="cls-7" d="M235.89,301.74s.21,2.49,1.82,2.17l3.63-3.48s1-3.53-.63-3.21-4.82,4.52-4.82,4.52" transform="translate(-52.13 -80.81)"/><path class="cls-7" d="M234.69,303.31s-1.38-1.49-2-.31a.72.72,0,0,1-.43.39l-1.44.43a8.54,8.54,0,0,0-.55,3.33c1.16.83,4.73-1.62,6-2.27,1.46-.74-1.59-1.57-1.59-1.57" transform="translate(-52.13 -80.81)"/><path class="cls-7" d="M232,309s-3.55-.23-3,1c.09.19,1.78.39,1.65.65l-1,1.83c-.16.3.08.51.42.35,1.93-.94,8.92-5.6,8.13-6.63-1-1.3-6.19,2.8-6.19,2.8" transform="translate(-52.13 -80.81)"/><path class="cls-7" d="M223.59,316.89a1.64,1.64,0,0,0,.16,2.08.72.72,0,0,1,.25.53V321a.29.29,0,0,0,.47.24c1.14-.86,1.8-4.14.73-4.89-1.34-.93-1.6.55-1.6.55" transform="translate(-52.13 -80.81)"/><path class="cls-7" d="M241.64,303a1.63,1.63,0,0,0-1.62,1.31.74.74,0,0,1-.29.51l-1.24.84a.3.3,0,0,0,.08.53c1.36.44,4.7,1.39,4.7.08a5.73,5.73,0,0,0-1.63-3.27" transform="translate(-52.13 -80.81)"/><path class="cls-9" d="M199,255l13,2s5,2,2,3c0,0-10,2-16,0C198,260,198,255,199,255Z" transform="translate(-52.13 -80.81)"/></g><g id="FONDO_CERROS" data-name="FONDO CERROS"><path class="cls-8" d="M133,173v62l63-1V159l-11,1-4,15-4,19-21-4a6.83,6.83,0,0,1-4-4,6.93,6.93,0,0,0-3-4l-3,3v-3l-3-2s-2-2-3-2l-2-5Z" transform="translate(-52.13 -80.81)"/></g><g id="RIO"><path class="cls-9" d="M152,186c4-5,17,2,16,2s11,12,11,12l7,9,3,6,8,9-3,25H134V226s18,8,21,7c0,0,27-2,17-6,0,0-14-4-6-7,0,0,16-6,11-8-5.65-2.26-6-1-7-2s-7-14-7-14l-2-3-3-2a3.7,3.7,0,0,0-3-2C153,189,153,188,152,186Z" transform="translate(-52.13 -80.81)"/><path class="cls-8" d="M366.64,154H383.2L392,171.36c1.08,2.35,2,4.95,3.06,7.43h.36c1.08-2.48,2-5.08,3.06-7.43L407,154h16.56V196.4h-14V183.88c0-4.31,1.26-10.89,2-15.13h-.36l-4.86,10.17-7.2,14h-8.28l-7.2-14-4.68-10.17h-.36c.72,4.24,2,10.82,2,15.13V196.4H366.64Z" transform="translate(-52.13 -80.81)"/><path class="cls-8" d="M436.13,175.92V154h15.48v23.22c0,7.56,2.7,10.3,8.82,10.3s9-2.74,9-10.3V154h14.94v21.91c0,14.48-7.56,21.26-23.94,21.26S436.13,190.4,436.13,175.92Z" transform="translate(-52.13 -80.81)"/><path class="cls-8" d="M497,154h15.84l13,18.91,5.58,9.52h.36c-.72-4.56-2-10.95-2-16.17V154H544.5V196.4H528.66l-13-19L510.11,168h-.36c.72,4.82,2,10.95,2,16.17V196.4H497Z" transform="translate(-52.13 -80.81)"/><path class="cls-8" d="M557.46,154h15.48V196.4H557.46Z" transform="translate(-52.13 -80.81)"/><path class="cls-8" d="M583.38,175.53c0-14.22,13.5-22.3,28.27-22.3a31.16,31.16,0,0,1,18.18,5.61l-8.1,7.17a17.14,17.14,0,0,0-9.72-3.13c-6.84,0-12.78,4.56-12.78,12.26,0,8,5,12.39,12.6,12.39a17.19,17.19,0,0,0,10.62-3.65l8.1,7c-4.95,4.18-11.7,6.26-19.26,6.26C596.34,197.18,583.38,190,583.38,175.53Z" transform="translate(-52.13 -80.81)"/><path class="cls-8" d="M638.65,154h15.48V196.4H638.65Z" transform="translate(-52.13 -80.81)"/><path class="cls-8" d="M667.09,154h21.43c12.78,0,23.76,3.39,23.76,14.09,0,10.37-11.16,14.87-23.4,14.87h-6.3V196.4H667.09Zm21.07,20.09c6.12,0,9-2.22,9-6s-3.42-5.22-9.36-5.22h-5.22V174.1Z" transform="translate(-52.13 -80.81)"/><path class="cls-8" d="M727.76,154h18.72l17.83,42.39H747.92l-6.66-20.61c-1.44-4-2.88-9.19-4.32-13.43h-.36c-1.26,4.3-2.7,9.39-4.14,13.43l-6.66,20.61H709.94Zm-5,24.72h28.62v8.67H722.72Z" transform="translate(-52.13 -80.81)"/><path class="cls-8" d="M769,154h15.48v33h22.14v9.39H769Z" transform="translate(-52.13 -80.81)"/><path class="cls-8" d="M816.69,154h15.49V196.4H816.69Z" transform="translate(-52.13 -80.81)"/><path class="cls-8" d="M845.14,154h17.28c17.82,0,30.06,6,30.06,21s-12.24,21.39-29.16,21.39H845.14Zm16.38,33.39c8.46,0,15.12-2.48,15.12-12.39s-6.66-12-15.12-12h-.9V187.4Z" transform="translate(-52.13 -80.81)"/><path class="cls-8" d="M912.47,154h18.72L949,196.4H932.63L926,175.79c-1.44-4-2.88-9.19-4.32-13.43h-.36c-1.26,4.3-2.7,9.39-4.14,13.43l-6.66,20.61H894.64Zm-5,24.72h28.62v8.67H907.43Z" transform="translate(-52.13 -80.81)"/><path class="cls-8" d="M953.69,154H971c17.83,0,30.07,6,30.07,21S988.8,196.4,971.88,196.4H953.69Zm16.39,33.39c8.46,0,15.12-2.48,15.12-12.39s-6.66-12-15.12-12h-.91V187.4Z" transform="translate(-52.13 -80.81)"/><path class="cls-8" d="M635.14,232.27h17.28c17.83,0,30.07,6,30.07,21s-12.24,21.39-29.17,21.39H635.14Zm16.38,33.39c8.47,0,15.13-2.48,15.13-12.39s-6.66-12-15.13-12h-.9v24.39Z" transform="translate(-52.13 -80.81)"/><path class="cls-8" d="M692.93,232.27h37.8v9.39H708.41v6.65h19.08v9.39H708.41v7.57h23.22v9.39h-38.7Z" transform="translate(-52.13 -80.81)"/><path class="cls-8" d="M610.21,310.53h18.72l17.82,42.39H630.37l-6.66-20.61c-1.44-4-2.88-9.19-4.32-13.43H619c-1.26,4.3-2.7,9.39-4.14,13.43l-6.66,20.61H592.39Zm-5,24.72h28.62v8.67H605.17Z" transform="translate(-52.13 -80.81)"/><path class="cls-8" d="M651.43,310.53h15.49v33h22.14v9.39H651.43Z" transform="translate(-52.13 -80.81)"/><path class="cls-8" d="M699.14,310.53h15.48v42.39H699.14Z" transform="translate(-52.13 -80.81)"/><path class="cls-8" d="M724,347.64l8.82-7.7a29.31,29.31,0,0,0,13.69,4.11c4.68,0,6.66-1.11,6.66-3s-3-2.67-7.92-4.11l-7.29-2.22c-6.31-1.82-11.8-5.67-11.8-11.8,0-7.24,9-13.17,21.79-13.17,6.66,0,14,1.82,19.44,5.67l-7.74,7a24.22,24.22,0,0,0-11.7-3.06c-3.78,0-6.12,1-6.12,2.87s3.33,2.74,8.64,4.24l7.11,2c7.29,2.09,11.43,5.74,11.43,11.61,0,7.17-8.28,13.56-22.86,13.56C738.75,353.7,730.29,351.75,724,347.64Z" transform="translate(-52.13 -80.81)"/></g><g id="CERROS"><path class="cls-5" d="M134.5,173s1-2,2-2,4,4,3,5c0,0,0,2,1,2,0,0,2,1,2,2,0,0,3,2,4,2,0,0-1,4-2,4,0,0-1-3-2,0,0,0,0,2-2,1h0s-2-1-1,2l3,5s0,5,1,5c0,0,2,0,2,1,0,0,1,4,2,2,0,0,1-3-1-4h0s-3-2-3-3c0,0-1-7,0-7a3.49,3.49,0,0,0,2,1s1-1,1,0c0,0,1,5,3,4,0,0-1-4-2-4v-1s1,0,0-1v-6l1-2s4,5,4,6c0,0,0,3.34,1.52,3.92.1,0,3.48,1.08,3.48.08l6,8,2,3a3.85,3.85,0,0,1,1,1.7,1.53,1.53,0,0,1,0,.3c0,1,3,4,3,4v1s0,3,1,3,7,2,7,2l-7-1s-3-3-2-4c0,0-3-4-3-5l-2-3c-2-3-5-9-7-9s-2-1-2-1" transform="translate(-52.13 -80.81)"/><path class="cls-5" d="M135.5,203.5s3,2,3,3h2s2,5,3,4c0,0,1,0,2,2,0,0,2,2,3,0,0,0,1-1,3,3,0,0,3,4,4,4,0,0,3,4,0,6,0,0,1-3-1-4,0,0-5-3-4-4,0,0-3-2-3-1v5s-1,2-1-3c0,0-2-7-5-6,0,0-3-2-3-3,0,0,0-2-1,1,0,0-2,2-1,4l.92,3.7.08.3s-7-12-2-15" transform="translate(-52.13 -80.81)"/><path d="M194,159" transform="translate(-52.13 -80.81)"/><path class="cls-7" d="M184,161s-3,12-5,11,0-1,0-1-3-4-4,3c0,0-16,19-6,23,0,0,24,15,18,21-2.83,2.83,12,9,12,9s-19-30-16-30l4-3s6,4,6-1c0,0-2-7-4-7,0,0,1-5-3-6,0,0-3-7-1-7,0,0,8,7,8,8,0,0-2-5-3-5,0,0-1-3-2-3,0,0-3-1-2-3,0,0,0-2-1-2,0,0-1-6,0-6,0,0,1,2,2,1,0,0,4-3,4-1v1h1s2,3,2,4h2a3.49,3.49,0,0,1,1,2s1,4,2,3v-4s-2-2-2-4a3.55,3.55,0,0,0-2-3" transform="translate(-52.13 -80.81)"/></g><g id="ARBOLES"><path class="cls-4" d="M155.06,238.11h2.88V236.3s2.87-.9,1-1.8h0s1.91-1.81,0-2.71c0,0-1.92-1.81,0-1.81,0,0-1,.91,0-.9,0,0,2.87-1.81.95-1.81,0,0-2.87-3.61-.95-2.7,0,0,1.91-.91.95-1.81,0,0-.95,0-.95-.9,0,0,1.91,0,0-.91,0,0,.95-1.8-1-1.8,0,0-1-.91,1-.91,0,0,0-1.8-1-1.8,0,0-1.92-.91,0-1.81,0,0-1-2.71,0-2.71a8.68,8.68,0,0,1-1-2.71s-2.88,1.81-1,2.71,0,.91,0,.91-1.92,0,0,.9c0,0,1.92.9,0,.9s0,1.81,0,1.81h0s-1,0,0,.9c0,0,1.92,3.61,0,1.81l-1.92-1.81s0,2.71,1.92,2.71-1.92.9-1.92.9-1,0,1,.91c0,0,1.92.9-1,.9,0,0-1,4.51,1,4.51,0,0-3.83,1.81,0,1.81,0,0-4.79,2.71-1,2.71,0,0-2.87,1.81-1,1.81,0,0-1.91,2.7,1,1.8,0,0,0,.9,1,0Z" transform="translate(-52.13 -80.81)"/><path class="cls-4" d="M164.58,239h2.33v-1.17s2.33-.58.78-1.16h0s1.55-1.17,0-1.75c0,0-1.56-1.17,0-1.17,0,0-.78.58,0-.59,0,0,2.33-1.16.78-1.16,0,0-2.34-2.34-.78-1.75,0,0,1.55-.59.78-1.17,0,0-.78,0-.78-.58,0,0,1.55,0,0-.59,0,0,.78-1.16-.78-1.16,0,0-.78-.59.78-.59,0,0,0-1.16-.78-1.16,0,0-1.55-.59,0-1.17,0,0-.78-1.75,0-1.75a5,5,0,0,1-.78-1.75s-2.33,1.16-.77,1.75,0,.58,0,.58-1.56,0,0,.59c0,0,1.55.58,0,.58s0,1.17,0,1.17h0s-.78,0,0,.58c0,0,1.55,2.33,0,1.17l-1.56-1.17s0,1.75,1.56,1.75-1.56.58-1.56.58-.78,0,.78.59c0,0,1.55.58-.78.58,0,0-.78,2.92.78,2.92,0,0-3.11,1.16,0,1.16,0,0-3.89,1.76-.78,1.76,0,0-2.33,1.16-.78,1.16,0,0-1.55,1.75.78,1.17,0,0,0,.58.78,0Z" transform="translate(-52.13 -80.81)"/><path class="cls-4" d="M142.07,237H147v-1.81s4.91-.9,1.63-1.8h0s3.28-1.81,0-2.71c0,0-3.27-1.81,0-1.81,0,0-1.63.91,0-.9,0,0,4.91-1.81,1.64-1.81,0,0-4.91-3.61-1.64-2.71,0,0,3.28-.9,1.64-1.8,0,0-1.64,0-1.64-.91,0,0,3.28,0,0-.9,0,0,1.64-1.8-1.63-1.8,0,0-1.64-.91,1.63-.91,0,0,0-1.8-1.63-1.8,0,0-3.28-.91,0-1.81,0,0-1.64-2.71,0-2.71,0,0-1.64-1.8-1.64-2.71,0,0-4.91,1.81-1.64,2.71s0,.9,0,.9-3.27,0,0,.91c0,0,3.28.9,0,.9s0,1.81,0,1.81h0s-1.63,0,0,.9c0,0,3.28,3.61,0,1.81l-3.27-1.81s0,2.71,3.27,2.71-3.27.9-3.27.9-1.64,0,1.64.9c0,0,3.27.91-1.64.91,0,0-1.64,4.51,1.64,4.51,0,0-6.55,1.81,0,1.81,0,0-8.19,2.71-1.64,2.71,0,0-4.91,1.8-1.64,1.8,0,0-3.27,2.71,1.64,1.81,0,0,0,.9,1.64,0Z" transform="translate(-52.13 -80.81)"/><path class="cls-4" d="M169.43,221h2.79v-.66s2.78-.33.93-.66h0s1.85-.66,0-1c0,0-1.86-.66,0-.66,0,0-.93.33,0-.33,0,0,2.78-.66.93-.66,0,0-2.79-1.32-.93-1,0,0,1.85-.33.93-.66,0,0-.93,0-.93-.33,0,0,1.85,0,0-.33,0,0,.93-.66-.93-.66,0,0-.93-.33.93-.33,0,0,0-.66-.93-.66,0,0-1.86-.33,0-.66,0,0-.93-1,0-1,0,0-.93-.66-.93-1,0,0-2.79.66-.93,1s0,.33,0,.33-1.86,0,0,.33c0,0,1.86.32,0,.32s0,.66,0,.66h0s-.93,0,0,.33c0,0,1.86,1.32,0,.66l-1.86-.66s0,1,1.86,1-1.86.33-1.86.33-.93,0,.93.33c0,0,1.86.33-.93.33,0,0-.93,1.65.93,1.65,0,0-3.71.66,0,.66,0,0-4.64,1-.93,1,0,0-2.78.66-.93.66,0,0-1.85,1,.93.66,0,0,0,.33.93,0Z" transform="translate(-52.13 -80.81)"/><path class="cls-4" d="M178.32,217.63h2.79V217s2.79-.33.93-.66h0s1.86-.66,0-1c0,0-1.86-.66,0-.66,0,0-.93.33,0-.33,0,0,2.79-.66.93-.66,0,0-2.79-1.32-.93-1,0,0,1.86-.33.93-.66,0,0-.93,0-.93-.33,0,0,1.86,0,0-.33,0,0,.93-.66-.93-.66,0,0-.93-.33.93-.33,0,0,0-.66-.93-.66,0,0-1.86-.33,0-.66,0,0-.93-1,0-1,0,0-.93-.66-.93-1,0,0-2.79.66-.93,1s0,.33,0,.33-1.86,0,0,.33c0,0,1.86.33,0,.33s0,.66,0,.66h0s-.93,0,0,.33c0,0,1.86,1.32,0,.66l-1.86-.66s0,1,1.86,1-1.86.33-1.86.33-.93,0,.93.33c0,0,1.86.33-.93.33,0,0-.93,1.65.93,1.65,0,0-3.71.66,0,.66,0,0-4.64,1-.93,1,0,0-2.78.65-.93.65,0,0-1.85,1,.93.66,0,0,0,.33.93,0Z" transform="translate(-52.13 -80.81)"/><path class="cls-4" d="M172.77,232.08h2.78v-.66s2.79-.33.93-.66h0s1.86-.66,0-1c0,0-1.86-.66,0-.66,0,0-.93.33,0-.33,0,0,2.79-.65.93-.65,0,0-2.79-1.32-.93-1,0,0,1.86-.33.93-.66,0,0-.93,0-.93-.33,0,0,1.86,0,0-.33,0,0,.93-.66-.93-.66,0,0-.93-.33.93-.33,0,0,0-.66-.93-.66,0,0-1.86-.33,0-.66,0,0-.93-1,0-1,0,0-.93-.66-.93-1,0,0-2.78.66-.93,1s0,.33,0,.33-1.85,0,0,.33c0,0,1.86.33,0,.33s0,.66,0,.66h0s-.92,0,0,.33c0,0,1.86,1.32,0,.66l-1.85-.66s0,1,1.85,1-1.85.33-1.85.33-.93,0,.93.33c0,0,1.85.33-.93.33,0,0-.93,1.65.93,1.65,0,0-3.72.65,0,.65,0,0-4.65,1-.93,1,0,0-2.79.66-.93.66,0,0-1.86,1,.93.66,0,0,0,.33.93,0Z" transform="translate(-52.13 -80.81)"/></g><g id="CONDOR"><path class="cls-7" d="M196,139a34.24,34.24,0,0,1,10,0l4-2s-1,0,6-1l9-2,7.66-1.91L233,132s8-4,9-8c0,0,3-4-1,3,0,0,0,1,3-4,0,0,3-3-2,4a12.38,12.38,0,0,1-3,2s0,1,4-2,1,0,1,0-5,3-7,4c0,0,4-1,6-3,0,0,2-1-1,2,0,0-5,2-7,2a10.56,10.56,0,0,0,6,0s-2,2-7,1c0,0,1,1,6,1,0,0-2,1-8,1a14.39,14.39,0,0,1,3,2s-4-1-5,0h-3a45.37,45.37,0,0,1-8,3,39.33,39.33,0,0,0-6,2,43.31,43.31,0,0,1-5,1c-1,0-3,1-3,4,0,0,1,4-1,3,0,0-14,1-18-1a4.38,4.38,0,0,0-3-1s7-2,9-2c0,0-1-2,0-2a33.85,33.85,0,0,1-11,0s-12-3-13-5a1.39,1.39,0,0,1-2,0h-2a1,1,0,0,1-1-1l-5,1s6-3,8-2c0,0,2-2-5,0,0,0-9,2-9,1,0,0,13-4,14-2,0,0,1-2-7-1,0,0-8,0-8-1,0,0,13,1,14,0,0,0-12-1-13-3,0,0,12,3,13,2,0,0-14-3-12-5,0,0,12,5,13,5,0,0-10-5-11-7,0,0,10,6,12,7,0,0-9-6-9-7,0,0,0-1,3,2,0,0,8,6,11,6,0,0,12,2,14,3Z" transform="translate(-52.13 -80.81)"/><path d="M204,139l2.74-.69a2.67,2.67,0,0,0,1.34-.7c.35-.39,1.64-1,5.92-1.61" transform="translate(-52.13 -80.81)"/><path class="cls-8" d="M204,144c-.74,1.48.38,3-1,3a3.19,3.19,0,0,1-3-3c0-1.66.62-3,2-3C203,141,205,142,204,144Z" transform="translate(-52.13 -80.81)"/><path class="cls-7" d="M206,145.63a.13.13,0,0,0,.24,0c.42-.81,1.2-2.87-1.19-3.67a1.39,1.39,0,0,1-2,0s-4.94,3,.53,5c0,0,1.47,0,1.47-2A1,1,0,0,1,206,145.63Z" transform="translate(-52.13 -80.81)"/><path class="cls-8" d="M90,195" transform="translate(-52.13 -80.81)"/><path class="cls-2" d="M194,159.5" transform="translate(-52.13 -80.81)"/></g><g id="CHALAS"><path class="cls-5" d="M247,341l3,7s11.9-6.92,24.35-15.08c11.21-7.35,22.86-15.71,26.65-20.92,8-11,39-44,28-111,0,0-10-2-10-6v1s28.65,71.62-41.83,126.12A190.17,190.17,0,0,1,247,341Z" transform="translate(-52.13 -80.81)"/><path class="cls-6" d="M289,343" transform="translate(-52.13 -80.81)"/><path class="cls-5" d="M297,320" transform="translate(-52.13 -80.81)"/><path class="cls-5" d="M278,360s35-14,27-32c0,0-10.7-27.25-31.35,5.38,0,0,18.35-14.38,21.35-5.38C295,328,302,335,278,360Z" transform="translate(-52.13 -80.81)"/><path class="cls-5" d="M280,360s33-14,25-32c0,0-8.7-27.25-29.35,5.38,0,0,18.35-14.38,21.35-5.38C297,328,304,335,280,360Z" transform="translate(-52.13 -80.81)"/><path class="cls-5" d="M266,306s33,13.11,3,22.05C269,328.05,279,320,266,306Z" transform="translate(-52.13 -80.81)"/><path class="cls-5" d="M317,343s43-32,10-44c0,0-22.31-6.61-25.1,11.8,0,0,18.1-16.8,29.1-2.8C331,308,339,312,317,343Z" transform="translate(-52.13 -80.81)"/><path class="cls-5" d="M317,343s43-32,10-44a25.07,25.07,0,0,1,4,9S339,312,317,343Z" transform="translate(-52.13 -80.81)"/><path class="cls-5" d="M283,292s13-18,12-20c0,0,9-5,15,20,0,0-2,14-11,10,0,0,6-28-1-22Z" transform="translate(-52.13 -80.81)"/><path class="cls-5" d="M283,292s13-18,12-20c0,0,10,2,3,8Z" transform="translate(-52.13 -80.81)"/><path class="cls-5" d="M334,300s12-23,3-24c0,0-13.62-8-22.31,16.5,0,0,18.31-9.5,19.31-12.5C334,280,338,275,334,300Z" transform="translate(-52.13 -80.81)"/><path class="cls-5" d="M334,300s12-23,3-24c0,0-3,2-3,4C334,280,338,275,334,300Z" transform="translate(-52.13 -80.81)"/><path class="cls-5" d="M300,229s12-8,19,13c0,0,2,21,4,21,0,0,2.28,13.5-7.36,11.75,0,0,.36-15.75-1.64-19.75,0,0-3-6-2-10C312,245,305,229,300,229Z" transform="translate(-52.13 -80.81)"/><path class="cls-5" d="M322,206V189.86l-9.93-3.72,8.69,1.24c-2.67-2.67-11.36-6-11.17-6.21,0,0,1.72-3.72,5.44-1.24,0,0-9.93-9.93-12.41-5,0,0,7.45-5,9.93-1.25,0,0,5,6.21,7.45-3.72,0,0-5,9.93-2.48,9.93,0,0,2,7.45,5.72,5,0,0,2.48,5,6.21,1.24a8.59,8.59,0,0,1-5,3.72s7.45,13.66,9.93,11.17c0,0-11.17,0-9.93-5Z" transform="translate(-52.13 -80.81)"/><path class="cls-5" d="M315,197l8,5s7,34,3,43l-2.76,4.5S327,207,315,197Z" transform="translate(-52.13 -80.81)"/><path class="cls-5" d="M338,248s7-23-1-32c0,0-18-10-6,16,0,0-2-14,3-11C334,221,340,227,338,248Z" transform="translate(-52.13 -80.81)"/><path class="cls-7" d="M144.21,342.28l-3.2,6.91s-11.7-7.27-23.9-15.79c-11-7.68-22.38-16.37-26-21.7-7.67-11.23-37.69-45.12-24.72-111.77,0,0,10-1.71,10.17-5.7s0,1,0,1S45.77,266,114.62,322.52A190.25,190.25,0,0,0,144.21,342.28Z" transform="translate(-52.13 -80.81)"/><path class="cls-6" d="M102.17,343" transform="translate(-52.13 -80.81)"/><path class="cls-11" d="M94.85,319.82" transform="translate(-52.13 -80.81)"/><path class="cls-5" d="M112.67,360.36s-34.57-15-26-32.78c0,0,11.5-26.92,31.18,6.3,0,0-17.92-14.91-21.18-6C96.62,327.87,89.41,334.66,112.67,360.36Z" transform="translate(-52.13 -80.81)"/><path class="cls-5" d="M110.67,360.3s-32.57-15-24-32.72c0,0,9.5-27,29.18,6.24,0,0-17.92-14.91-21.18-6C94.62,327.81,87.42,334.61,110.67,360.3Z" transform="translate(-52.13 -80.81)"/><path class="cls-5" d="M126.25,306.74s-33.36,12.13-3.64,21.95C122.61,328.69,112.85,320.35,126.25,306.74Z" transform="translate(-52.13 -80.81)"/><path class="cls-5" d="M74.19,342.22s-42-33.25-8.71-44.28c0,0,22.5-5.95,24.75,12.53,0,0-17.6-17.32-29-3.65C61.22,306.82,53.11,310.59,74.19,342.22Z" transform="translate(-52.13 -80.81)"/><path class="cls-5" d="M74.19,342.22s-42-33.25-8.71-44.28a25.16,25.16,0,0,0-4.26,8.88S53.11,310.59,74.19,342.22Z" transform="translate(-52.13 -80.81)"/><path class="cls-5" d="M109.67,292.24s-12.46-18.37-11.4-20.34c0,0-8.85-5.26-15.59,19.55,0,0,1.59,14.05,10.7,10.32,0,0-5.17-28.17,1.65-22Z" transform="translate(-52.13 -80.81)"/><path class="cls-5" d="M109.67,292.24s-12.46-18.37-11.4-20.34c0,0-10.06,1.7-3.24,7.91Z" transform="translate(-52.13 -80.81)"/><path class="cls-5" d="M58.46,298.74s-11.32-23.35-2.29-24.08c0,0,13.85-7.6,21.81,17.15,0,0-18-10-18.93-13.06C59.05,278.75,55.2,273.63,58.46,298.74Z" transform="translate(-52.13 -80.81)"/><path class="cls-5" d="M58.46,298.74s-11.32-23.35-2.29-24.08c0,0,2.94,2.09,2.88,4.09C59.05,278.75,55.2,273.63,58.46,298.74Z" transform="translate(-52.13 -80.81)"/><path class="cls-5" d="M94.53,228.77s-11.76-8.35-19.37,12.43c0,0-2.62,20.94-4.62,20.88,0,0-2.68,13.42,7,12,0,0,.11-15.75,2.22-19.69,0,0,3.18-5.91,2.3-9.94C82.07,244.41,89.53,228.62,94.53,228.77Z" transform="translate(-52.13 -80.81)"/><path class="cls-5" d="M73.22,205.13,73.69,189l10-3.43-8.72,1c2.74-2.59,11.53-5.69,11.35-5.88,0,0-1.62-3.77-5.41-1.4,0,0,10.22-9.64,12.55-4.6,0,0-7.3-5.18-9.89-1.53,0,0-5.14,6.06-7.33-3.94,0,0,4.67,10.07,2.19,10,0,0-2.22,7.38-5.87,4.79,0,0-2.63,4.89-6.24,1.06a8.6,8.6,0,0,0,4.85,3.87S63.37,202.36,61,199.8c0,0,11.16.33,10.07-4.67Z" transform="translate(-52.13 -80.81)"/><path class="cls-5" d="M80.48,196.34l-8.14,4.76s-8,33.78-4.27,42.9l2.63,4.58S68.19,206,80.48,196.34Z" transform="translate(-52.13 -80.81)"/><path class="cls-5" d="M56,246.64s-6.32-23.19,1.94-31.95c0,0,18.29-9.47,5.53,16.17,0,0,2.41-13.94-2.68-11.09C60.78,219.77,54.61,225.59,56,246.64Z" transform="translate(-52.13 -80.81)"/></g><g id="CINTA_INFERIOR" data-name="CINTA INFERIOR"><path class="cls-5" d="M172.5,392.5s10.42-10.47,8.71-21.23c0,0,.29-7.77-1.71-13.77l-4,3s2.29,17.75-3.35,21.37c0,0-22.59-2.77-25.62,2.93,0,0-9.94,11.38,24.52,7.54a12.56,12.56,0,0,1,3,1.39C173.65,393.16,173.08,392.5,172.5,392.5Z" transform="translate(-52.13 -80.81)"/><path class="cls-5" d="M172.52,396.25a11.55,11.55,0,0,0,1.64-.44" transform="translate(-52.13 -80.81)"/><path class="cls-5" d="M270.85,383.51a83.5,83.5,0,0,0-11.92,6.2c-4.93,3.29-35.21,8.08-40.66,7-.63-.12-4.16-.24-4.6-.35,4.91,5.65,8,14.68,8,14.68L194,413l-.5-.5L167,410.74s.4-9,5.51-14.49c-.45.1-1,.2-1.61.3-5.49.85-18.13,1.35-39.49-5.48L116,384s-14.5-.5-12.5,24.5c0,0,14.5,26.5,90.5,27.5h0c75.55,1.68,90.38-28.88,90.38-28.88C287.29,382.21,270.85,383.51,270.85,383.51Z" transform="translate(-52.13 -80.81)"/><path class="cls-5" d="M241,385c-5.06-6.89-25-3-25-3-5.51-3.83-5-21-5-21l-3.89-2.6C204.89,364.33,206,372,206,372c-2.1,10.7,10.83,20.64,10.83,20.64-.58,0-3.17.62-3.58,1.17,1.15-.77,5-1.28,5-1.28C251,396,241,385,241,385Z" transform="translate(-52.13 -80.81)"/><path class="cls-5" d="M216.67,397.39" transform="translate(-52.13 -80.81)"/><path class="cls-5" d="M213,394" transform="translate(-52.13 -80.81)"/><path class="cls-7" d="M165.5,359.5h-21s2,7,11,6c0,0,1,5-7,9,0,0,17.34,3.23,26.17-9.89Z" transform="translate(-52.13 -80.81)"/><path class="cls-7" d="M221.05,358.73l21,1s-2.33,6.9-11.27,5.47c0,0-1.24,4.94,6.56,9.32,0,0-17.48,2.4-25.67-11.12Z" transform="translate(-52.13 -80.81)"/><path class="cls-5" d="M161.5,359.5s27.5-36.5,64,0c0,0,3,9.5-9.5,9.5,0,0-21.5-24.5-44.5-1.5C171.5,367.5,161.5,370.5,161.5,359.5Z" transform="translate(-52.13 -80.81)"/><path class="cls-12" d="M206.5,361.5s-5,16.7,8,20.63c0,0,25-4.15,27,3.84,0,0,7.22,10-22.79,6.42a7,7,0,0,0-5.1,1.31c-1.77,1.36-2.07,3.14,8,3.38,0,0,28.5-.66,41.45-9.74s17-.1,13,3.92c0,0-15.56,19.85-82.55,21.24h0c-61.61-.92-82.06-21.08-82-21-4-4,0-13,13-4S166,397,166,397c10-.3,9.71-2.08,7.93-3.43a7,7,0,0,0-5.1-1.28C138.84,396,146,386,146,386c2-8,27-4,27-4,13-4,7.5-21.5,7.5-21.5" transform="translate(-52.13 -80.81)"/></g><g id="CINTA_POSTERIOS" data-name="CINTA POSTERIOS"><path class="cls-8" d="M145.5,115.5s5,0,9-9C154.5,106.5,140.5,108.5,145.5,115.5Z" transform="translate(-52.13 -80.81)"/><path class="cls-8" d="M250.58,112.35s-3.58,2.65-9.32-8.66C241.26,103.69,254,105,250.58,112.35Z" transform="translate(-52.13 -80.81)"/><path class="cls-4" d="M243,107c-2.67-4.64,9,17.64,9-6,0,0,6,10,15,10,0,0,15,2,20,16,0,0-10,2-11-1,0,0,1,11-1,16,0,0-4-16-20-20C255,122,238,121,243,107Z" transform="translate(-52.13 -80.81)"/><path class="cls-6" d="M197,84" transform="translate(-52.13 -80.81)"/><path class="cls-4" d="M152.66,110c2.81-4.56-9.51,17.37-8.82-6.27,0,0-6.29,9.82-15.29,9.56,0,0-15.05,1.55-20.46,15.4,0,0,9.94,2.29,11-.68,0,0-1.33,11,.52,16,0,0,4.47-15.88,20.58-19.4C140.22,124.63,157.25,124.13,152.66,110Z" transform="translate(-52.13 -80.81)"/><path class="cls-13" d="M250,111" transform="translate(-52.13 -80.81)"/><path class="cls-4" d="M140.5,93.5s54-28,114,0c0,0,8.69,12.55-5.23,18.68-.13,0-.29-.19-.15-.21,2.38-.47,2.73-4.13-6.62-6.47,0,0-50-10-91,3,0,0-7.71,1.93-6.1,5.78,0,0,0,.1-.07.06C143.92,113,134,102.8,140.5,93.5Z" transform="translate(-52.13 -80.81)"/></g><g id="Capa_2" data-name="Capa 2"><path class="cls-8" d="M133,159" transform="translate(-52.13 -80.81)"/><path class="cls-14" d="M193.5,338.5" transform="translate(-52.13 -80.81)"/><path class="cls-2" d="M196.5,342.5" transform="translate(-52.13 -80.81)"/><path class="cls-2" d="M196,159.5" transform="translate(-52.13 -80.81)"/><path class="cls-15" d="M258.5,159.5h-125v155c0,7.26,17.08,8.87,31.65,12.73A151.59,151.59,0,0,1,196.5,339.5a122.07,122.07,0,0,1,30.09-12.87c14.67-4,30.62-5.18,31.91-12.13C258.65,313.67,258.5,159.5,258.5,159.5Z" transform="translate(-52.13 -80.81)"/><line class="cls-15" x1="144.37" y1="79.19" x2="144.37" y2="259.19"/><line class="cls-15" x1="81.87" y1="168.69" x2="206.87" y2="168.69"/></g></svg>