<svg xmlns="http://www.w3.org/2000/svg" viewBox="0 0 436.67 223"><defs><style>.cls-1{stroke:#000;stroke-miterlimit:10;}.cls-2{font-size:205.82px;font-family:Bauhaus93, "Bauhaus 93";}.cls-3{font-size:43.87px;fill:#00c87f;font-family:ForteMT, Forte;}.cls-4{letter-spacing:-0.08em;}</style></defs><title>Recurso 1</title><g id="Capa_2" data-name="Capa 2"><g id="original"><path class="cls-1" d="M130.17,4.5s4,4,10,26c0,0,17,32,17,35,0,0,15,32,7,62,0,0-3,29-43,51,0,0-75,52-54,34l48-41s42-25,34-76c0,0-12-72-18-74,0,0-9,23-16,25,0,0-8,5-31,3,0,0-15-1-18,16,0,0-2,15-5,18a44.37,44.37,0,0,1-9,10s-1,14,10,22a51.9,51.9,0,0,0,21,9s-7,16-13,22l4-16s-27-3-32-27c0,0-3-14-2-15a95.24,95.24,0,0,1,11-9s3-2,8-19c0,0,6-16,22-16,0,0,25.71,0,32.25-6.16a7.33,7.33,0,0,1,1.58-1.2C117.67,35.75,126,29.5,130.17,4.5Z"/><path class="cls-1" d="M100.72,4.56,114.17,30.5h-2l-10-12s-6.43,23-10.49,23.11a.5.5,0,0,1-.48-.56A143.37,143.37,0,0,1,99.74,4.62.54.54,0,0,1,100.72,4.56Z"/><path class="cls-1" d="M78.17,99.5s0-5,4-4c0,0,18-4,21-5,0,0,16-4,18-3C121.17,87.5,85.17,99.5,78.17,99.5Z"/><path class="cls-1" d="M78.17,104.5l4,1h43l-45-4S80.17,102.5,78.17,104.5Z"/><path class="cls-1" d="M77.17,108.5a1,1,0,0,1-1,1s0,2,3,3l44,12S80.17,107.5,77.17,108.5Z"/><path class="cls-1" d="M36.17,99.5s1-5-5-4l-31-6s20,7,36,10"/><path class="cls-1" d="M36.17,104.5s2-4-32,0l1,1S32.17,108.5,36.17,104.5Z"/><path class="cls-1" d="M38.17,109.5v3s-11,1-28,4C10.17,116.5,28.17,109.5,38.17,109.5Z"/><text class="cls-2" transform="translate(165.45 171.55) scale(1.32 1)">Lis</text><text class="cls-3" transform="translate(129.09 209.03)"><tspan class="cls-4">P</tspan><tspan x="22.56" y="0">araiso Natural</tspan></text></g></g></svg>