<svg xmlns="http://www.w3.org/2000/svg" viewBox="0 0 101 101"><defs><style>.cls-1{fill:#fff;}.cls-1,.cls-2{stroke:#011d35;stroke-miterlimit:10;}.cls-2{fill:#011d35;}</style></defs><title>Recurso 9</title><g id="Capa_2" data-name="Capa 2"><g id="Capa_1-2" data-name="Capa 1"><g id="Capa_6" data-name="Capa 6"><g id="Capa_1-2-2" data-name="Capa 1-2"><path class="cls-1" d="M52.62,21.3C65.83,25.18,65.83,25.18,63,33.23c-.18.48-.41,1-.57,1.46-1.18,3.74-1,3.92,5.2,5.68a85.35,85.35,0,0,0,15.65,2.7c2.12.19,3,0,2.63-1.26-.3-.94-.3-1.89,2.24-2s2.3.95,2.37,1.77a3.88,3.88,0,0,0,2.36,3.46c1.22.7,1.55,1.73.82,2.61-3.08,3.49-.82,7-.3,10.46,1.45,9.58,3.4,19.15,5.12,28.72.67,3.74,1.21,7.47,1.9,11.21.17,1,.49,1.89-2.1,2-2.43.08-2.25-1-2.39-1.75q-3.32-18.9-6.57-37.8c-.47-2.74-1.09-5.48-1.51-8.23-.18-1.21-1.31-1.73-3.42-1.92-8.29-.75-16.48-1.72-23.86-4.06-1.44-.47-2.1-.22-2.41.64-.88,2.5-1.83,5-2.76,7.49-.41,1.11,1,1.66,2.31,2.26C70.51,62.37,79,69.48,82.6,78.25a27.8,27.8,0,0,1,.88,18c-.79,2.72-5.46,4.61-10.52,4.26S64.1,97.51,64.7,94.7c.73-4.52,1.08-9-.52-13.54-1.45-4.17-4.72-8.1-9.54-11.46a19.7,19.7,0,0,1-1.57,7.53C48.61,87.6,36.3,94.45,19.15,99c-5,1.35-10.22.31-12.78-2.26-2.4-2.41-.7-5.4,4.22-6.89,6.67-2,13-4.27,17.62-7.65,8.31-6,8.18-12.79,5.88-19.71a4,4,0,0,0-1.87-1.58c-4.66-2.53-7.79-5.76-9-9.27-.59-1.53-1.63-2.41-4.86-2.25C12.64,49.7,7.51,49.22,4,46.26s-4.46-6.45-2.5-9.74a30.55,30.55,0,0,1,8.77-9.2c1.11-.83,2.5-1.57,0-2.41-1.51-.47-.8-1.3-.31-1.89,3.19-4.05,8.77-6.71,16.66-7.66,5.26-.63,9,1.05,9.65,4.14.35,1.78,1.08,2.56,4.71,1.72,3.81-.87,7.77,0,11.67.11Z"/><path class="cls-1" d="M23.23,51.69c-.59-1.54-1.63-2.42-4.86-2.25-5.73.28-10.86-.19-14.35-3.15s-4.47-6.48-2.5-9.77a30.55,30.55,0,0,1,8.77-9.2c1.11-.83,2.5-1.57,0-2.41-1.51-.47-.8-1.3-.31-1.89,3.19-4.05,8.77-6.71,16.66-7.66,5.26-.63,9,1.05,9.65,4.14.35,1.78,1.08,2.56,4.71,1.72S24.42,55.2,23.23,51.69Z"/><path class="cls-1" d="M85.88,41.8c-.3-.95-.3-1.89,2.24-2s2.3,1,2.37,1.77a3.88,3.88,0,0,0,2.36,3.46c1.22.71,1.55,1.74.82,2.62-3.08,3.48-.82,7-.3,10.45,1.45,9.59,3.4,19.15,5.12,28.73.67,3.73,1.21,7.47,1.9,11.2.17,1,.49,1.9-2.1,2-2.43.07-2.25-1-2.39-1.76q-3.32-18.9-6.57-37.79c-.47-2.75-1.09-5.48-1.51-8.23C87.64,51.07,86.24,43.05,85.88,41.8Z"/><path class="cls-1" d="M52.68,21.43c-6.52-1.74-11.52-4.17-12.91-8.24C37.66,7.44,44.56,1.86,55.2.72h.18C65.7-.46,76,3.33,78.28,9.06S73.72,20.23,63.15,21.58c-3.61.47-7,0-10.53-.16Z"/></g></g><path class="cls-2" d="M10.65,24.87s12.27,11.37,19.29,5.21,7-8.52,7-8.52S32.57,18.71,10.65,24.87Z"/><path class="cls-2" d="M37,32.15s27.44-8,27.31-5.74c0,0-21.14-6.38-24.23-.4S37,32.15,37,32.15Z"/><path class="cls-2" d="M20.92,37.52a.55.55,0,0,1-.24.71c-.59.4-.86.91-.54,1.4,1,1.56,2.4,4.3-.75,3.85,0,0-18.68-4.32-2.14-7.06C18.83,36.16,20.59,36.65,20.92,37.52Z"/></g></g></svg>