<svg xmlns="http://www.w3.org/2000/svg" viewBox="0 0 115.96 141"><defs><style>.cls-1,.cls-3{fill:lime;}.cls-1,.cls-2{stroke:#0d1700;}.cls-1,.cls-2,.cls-3{stroke-miterlimit:10;}.cls-2{fill:#0c6;}.cls-3{stroke:#35001d;}</style></defs><title>Recurso 6</title><g id="Capa_2" data-name="Capa 2"><g id="Capa_3" data-name="Capa 3"><ellipse class="cls-1" cx="57.65" cy="110.98" rx="22.5" ry="28.5"/><g id="Capa_1-2" data-name="Capa 1-2"><path class="cls-2" d="M47,140.5c-2.06-.16-4.12-.31-6.17-.48-10.83-.85-21.63-1.86-31.9-5.73a18.28,18.28,0,0,1-6.56-3.92,5.71,5.71,0,0,1-1.82-4.55,32.2,32.2,0,0,1,5.24-15.51c7.36-11.7,17.78-19.76,30.59-24.91a49,49,0,0,1,5.88-2c.28-.08.71,0,.8-.42s-.32-.51-.55-.69a42.17,42.17,0,0,1-16-28.35A2.86,2.86,0,0,0,25.52,52a4.52,4.52,0,0,1-1.37-3.45v-19a2.44,2.44,0,0,0-2-2.82h0c-6-2-11.87-4.15-17.8-6.26a2.31,2.31,0,0,1-1-.47c.06-.55.58-.51.92-.63L56.85.7A2.85,2.85,0,0,1,59,.7l52.61,18.61c.33.12.73.15.94.53-.24.55-.81.54-1.26.7-6,2.13-11.93,4.28-17.93,6.32a2.12,2.12,0,0,0-1.71,2.44c.08,6.38,0,12.76,0,19.14a4.46,4.46,0,0,1-1.47,3.68c-1,.84-.8,2-1,3A42.09,42.09,0,0,1,73.79,82.06c-.33.28-1,.42-.87.93s.76.41,1.18.54c15.16,4.62,27.33,13.23,35.92,26.55a34.4,34.4,0,0,1,5.31,14.24,7.09,7.09,0,0,1-3.42,7.46,35.08,35.08,0,0,1-10.64,4.4,116.66,116.66,0,0,1-19.82,3.3c-4.16.38-8.32.68-12.49,1Zm3.73-53c1.2,1.36,2.33,2.79,3.62,4.07a2.24,2.24,0,0,1,.45,2.9c-4.14,9.78-8.21,19.6-12.33,29.38a1.73,1.73,0,0,0,.45,2.25q7,6.81,13.85,13.72c.86.88,1.34.83,2.18,0q6.77-6.84,13.66-13.52a2.08,2.08,0,0,0,.52-2.71c-4.08-9.66-8.07-19.35-12.18-29a2.55,2.55,0,0,1,.58-3.24c1.13-1.2,2.18-2.51,3.27-3.78a28.56,28.56,0,0,1-14.11-.07Z"/><path class="cls-3" d="M17.15,44.7V59.53A2.88,2.88,0,0,0,18,61.72a3.62,3.62,0,0,1,0,5.13h0a3.8,3.8,0,0,1-5.23.2,3.55,3.55,0,0,1-.66-5L12.2,62a3.93,3.93,0,0,0,1-2.86v-30c0-2,0-2,1.91-1.47,2.32.69,2.09.31,2.09,2.79Q17.17,37.55,17.15,44.7Z"/></g></g></g></svg>