<svg xmlns="http://www.w3.org/2000/svg" viewBox="0 0 115.4 129.37"><defs><style>.cls-1{fill:lime;}.cls-1,.cls-2{stroke:#000;stroke-miterlimit:10;}.cls-2{fill:#0c6;}</style></defs><title>Recurso 7</title><g id="Capa_2" data-name="Capa 2"><g id="Capa_4" data-name="Capa 4"><g id="Capa_1-2" data-name="Capa 1-2"><path class="cls-1" d="M56.68,45.3c-6.94-.76-14.59-.47-21.84-3.15a16.52,16.52,0,0,1-7-4.37c-1.07-1.23-2.12-2.9-.82-4.13,2.86-2.7,3-6.32,4-9.66a28.73,28.73,0,0,1,9.09-13.75c.8-.66,1.64-1.68,2.83-1,.9.55.53,1.68.76,2.53.52,1.88-1.31,5.38,1.46,5.33,2.06,0,1.28-3.8,1-5.71-1-6.56,5.09-7.61,8.41-10.15C57-.5,60.51,1.09,64,3.23c5.19,3.2,5.1,7,5,11.63,0,1.19-.07,2.8,1.73,2.65,1.35-.11,1.19-1.53,1.37-2.59.33-1.88-1-4.79,1-5.43s3.46,2.14,4.89,3.64a26.57,26.57,0,0,1,6.61,12.58c.61,2.71,1.16,5.24,3.4,7.38,2.62,2.5.31,4.54-1.67,6-4.74,3.59-10.46,4.53-16.13,5.26C65.92,44.94,61.57,45,56.68,45.3Z"/><path class="cls-2" d="M57.22,85.62C48.38,85.08,42.8,79.86,39,72.42a71.9,71.9,0,0,0-5-8.84,20.35,20.35,0,0,1-3.69-14.52c.4-3.18,1.73-4.72,5.28-3.8a87.17,87.17,0,0,0,43.64.06c4.17-1,5.83.51,6.18,4.33a10.73,10.73,0,0,1-.09,4.15c-3.43,10.34-8.23,20-16.11,27.65A15.23,15.23,0,0,1,57.22,85.62Z"/><path class="cls-2" d="M58.32,111.6c10.38,0,20.77.15,31.14-.07,4.29-.09,5.64,1.47,5.57,5.7-.18,11.27.23,9.12-8.7,10.07A262.31,262.31,0,0,1,26.07,127c-3.51-.44-4.75-1.88-4.85-5.31-.29-10-.39-10,9.67-10Z"/><path class="cls-2" d="M57.51,104.82c-6.18,0-12.37-.12-18.56.06-4,.11-6-1.22-5.76-5.6.27-5.24.08-10.51.06-15.77,0-2.56.07-4.86,3.12-6,2.87-1.06,3.89,1,5.33,2.5,10,10.49,23,10.24,32.81-.51,1.27-1.39,2.21-2.91,4.59-2s3.05,2.61,3,5c-.14,5.87-.2,11.76,0,17.63.1,3.44-1.32,4.74-4.63,4.69C70.78,104.76,64.13,104.82,57.51,104.82Z"/><path class="cls-2" d="M26.23,93.33c-.06,1.24-.06,2.48,0,3.71.48,4.6,0,8.08-6,8.34-3.13.14-4.94,3-5.23,6.24-.18,2-.1,4-.11,6,0,7.2-.32,7.41-7.36,5.15S-.34,119.17,1.08,112C3.58,99.5,9,89,21.62,83.71c4.29-1.78,4.57-1.65,4.61,3.13C26.24,89,26.23,91.17,26.23,93.33Z"/><path class="cls-2" d="M89.44,93.64a0,0,0,0,1,0,0c0-2.15.07-4.29,0-6.44-.14-3.57.91-4.79,4.62-3.18a34.74,34.74,0,0,1,20.88,32.7c-.11,3.73-7.91,8.78-11.33,7.36-1.08-.45-1.15-1.36-1.19-2.27-.06-1.7,0-3.4,0-5.1,0-8.71-1.06-10-9.54-11.54-3.3-.57-4.5-2.21-2.84-7.88a4.22,4.22,0,0,0-.15-2.93,4.27,4.27,0,0,0-.4-.68Z"/></g></g></g></svg>