<svg xmlns="http://www.w3.org/2000/svg" viewBox="0 0 250.91 301"><defs><style>.cls-1{fill:#8b0000;}.cls-1,.cls-2{stroke:#000;stroke-miterlimit:10;}.cls-2{fill:#0c6;}</style></defs><title>Recurso 8</title><g id="Capa_2" data-name="Capa 2"><g id="Capa_5" data-name="Capa 5"><ellipse class="cls-1" cx="126" cy="57.21" rx="76.5" ry="48"/><path class="cls-2" d="M123.21.68c23.55-.12,44.15,3.43,64,13.49a54.29,54.29,0,0,1,14.26,10.65c9.27,9.46,10.93,19.19,6.07,33.53-4.49,13.24-8.63,26.72-13.47,39.7-2.46,6.57-.93,9.92,3,13.24,4.47,3.8,9.43,5.72,14.33,8,18.64,8.51,32.74,23.6,37.15,51.51a142.84,142.84,0,0,1,.37,43.54c-2.84,18.76-13.64,26.09-25.38,30.08s-24.13,7.4-36.33,1.88c-4.21-1.87-5.07,2.76-6.54,5.95-6.59,14.24-14.62,26.59-25,35.51-25.46,21.81-54.25,15.3-75-17-4.71-7.33-7.62-18.88-13.32-22.42s-13.74,1.34-20.79.15C40,247.38,33.22,247,26.93,244.38,5.77,235.73,1.28,223.29.62,201.85c-.9-29,3.08-55,22.21-72.08,5.63-5,11.83-8.23,18.11-11.23,3.48-1.67,6.94-3.44,10.32-5.44,6-3.51,8-8.16,4.35-17.29C50.73,83.65,47.54,70.2,42.7,58c-5.83-14.68-1.49-24.83,6.67-33.38C60.66,12.79,74.15,8.46,87.73,5,100.21,1.82,112.91-.11,123.21.68Zm2.52,282c3.19.46,7.23-.94,11.28-2.42,22.26-8.16,40.62-45.55,44-77.94.51-4.85-1.33-7.42-4.37-9.31-19.88-12.35-36.66-30-48.85-55.36-2.09-4.32-3.23-3.76-5.14.17-12.08,25-28.6,42.63-48.25,54.81-4.13,2.56-5.58,6.16-4.62,12,4.31,25.93,12.93,48.38,28.39,64.84,7.74,8.15,16.52,13.29,27.59,13.17Zm-19.28-263c-15.79,2-31,5.36-45,15.08C52.7,40.81,52,44.34,56.16,56.3,57.87,61.18,59.63,66,61.23,71c5.66,17.49,5.68,17.68,18.32,11.08,10.21-5.33,20.91-7,31.57-9.1,3.53-.68,5.15-3.15,4.93-8.21-.23-5.22-2.68-5.8-5.61-5.76-1,0-2-.07-2.94-.08-6.57-.08-7.2-6.48-7.36-13.32s.56-13,6.85-14.13c3.61-.67,9.61,2.71,9-7-.68-10.37-6.71-2.17-9.51-4.73Zm39.31,0c-2,2.93-7.28-4.64-8.2,4.52-.63,6.34,2.41,7.4,6,7.11,6.67-.53,10.12,3.21,10,13-.16,11.5-1.4,13.73-10.26,14.55-3.35.3-5.71,1-5.79,6.71-.07,5.31,1,8,5.29,8.53,12.3,1.57,24.29,5.25,35.32,13.3,3.5,2.56,5.23,1.47,6.75-3.36,3-9.35,6.2-18.51,9.39-27.71,4.22-12.21,3.7-15.08-5.26-21.54-13.29-9.54-27.87-12.54-43.21-15.06Z"/></g></g></svg>