<svg xmlns="http://www.w3.org/2000/svg" viewBox="0 0 101 101"><defs><style>.cls-1{fill:#011d35;}.cls-1,.cls-2{stroke:#011d35;stroke-miterlimit:10;}.cls-2{fill:#fff;}</style></defs><title>Recurso 8</title><g id="Capa_2" data-name="Capa 2"><g id="Capa_1-2" data-name="Capa 1"><g id="Capa_1-2-2" data-name="Capa 1-2"><path class="cls-1" d="M25.13,56.72c8.5-8.33,29-17.9,29-17.9s18,9.57,19,12.5,6.5,20.41,6.5,20.41-19,28.74-27.51,24.58-10,6.66-25.5-20.42S25.13,56.72,25.13,56.72Z"/><g id="Capa_5" data-name="Capa 5"><ellipse class="cls-1" cx="50.72" cy="19.4" rx="30.61" ry="16"/><path class="cls-2" d="M49.6.56C59,.52,67.28,1.7,75.22,5.06a21.88,21.88,0,0,1,5.7,3.55c3.71,3.16,4.38,6.4,2.43,11.18C81.56,24.2,79.9,28.7,78,33c-1,2.2-.37,3.31,1.2,4.42a25.11,25.11,0,0,0,5.74,2.67C92.36,42.94,98,48,99.76,57.26a39.93,39.93,0,0,1,.15,14.5c-1.14,6.25-5.46,8.7-10.16,10s-9.65,2.46-14.54.62c-1.68-.62-2,.92-2.61,2a35.11,35.11,0,0,1-10,11.84c-10.19,7.27-21.71,5.1-30-5.67-1.88-2.44-3.05-6.29-5.33-7.47s-5.5.45-8.32,0a41.48,41.48,0,0,1-7.85-1.37C2.61,78.92.81,74.76.55,67.63.19,58,1.78,49.29,9.44,43.62a31.11,31.11,0,0,1,7.24-3.74c1.4-.56,2.78-1.15,4.13-1.82,2.4-1.17,3.2-2.72,1.74-5.76-1.95-4.08-3.23-8.55-5.16-12.63-2.34-4.92-.6-8.28,2.67-11.13C24.56,4.6,30,3.15,35.41,2A55,55,0,0,1,49.6.56Zm1,94a12.21,12.21,0,0,0,4.5-.81C64,91,71.36,78.58,72.71,67.76A2.77,2.77,0,0,0,71,64.66,46.7,46.7,0,0,1,51.41,46.2c-.83-1.44-1.29-1.25-2.06.06a46.32,46.32,0,0,1-19.3,18.27,3.23,3.23,0,0,0-1.85,4c1.72,8.65,5.17,16.13,11.36,21.62a16,16,0,0,0,11,4.39ZM42.9,7.11c-6.32.67-12.41,1.79-18,5-3.5,2-3.79,3.19-2.12,7.18.68,1.62,1.39,3.23,2,4.9,2.26,5.83,2.27,5.89,7.33,3.69,4.08-1.78,8.36-2.33,12.61-3,1.41-.23,2.06-1.05,2-2.74s-1.07-1.93-2.24-1.92H43.3c-2.63,0-2.88-2.16-2.94-4.44s.22-4.34,2.74-4.71c1.44-.23,3.84.9,3.6-2.34C46.43,5.28,44,8,42.89,7.16Zm15.73-.22c-.8,1-2.92-1.54-3.28,1.5-.26,2.11,1,2.47,2.4,2.37,2.67-.18,4,1.07,4,4.33-.07,3.84-.56,4.58-4.11,4.85-1.34.1-2.28.34-2.31,2.24s.4,2.67,2.11,2.84a33.07,33.07,0,0,1,14.14,4.44c1.4.85,2.09.5,2.7-1.12,1.2-3.12,2.5-6.17,3.76-9.24,1.69-4.07,1.5-5-2.11-7.18-5.31-3.18-11.15-4.18-17.29-5Z"/></g></g></g></g></svg>