<svg xmlns="http://www.w3.org/2000/svg" viewBox="0 0 115.04 212.43"><defs><style>.cls-1{fill:#0c6;}.cls-1,.cls-2{stroke:#000;stroke-miterlimit:10;}.cls-2{fill:#300;}</style></defs><title>Recurso 9</title><g id="Capa_2" data-name="Capa 2"><g id="Capa_6" data-name="Capa 6"><g id="Capa_1-2" data-name="Capa 1-2"><path class="cls-1" d="M59.94,44.71C75,52.91,75,52.91,71.74,69.91c-.2,1-.47,2-.65,3.07-1.35,7.9-1.17,8.29,5.93,12a59.13,59.13,0,0,0,17.85,5.71c2.42.4,3.41-.06,3-2.66-.35-2-.35-4,2.55-4.15s2.63,2,2.7,3.73c.12,2.77.6,5.2,2.7,7.31a5.06,5.06,0,0,1,.93,5.52c-3.51,7.36-.93,14.78-.34,22.07,1.65,20.24,3.88,40.43,5.84,60.65.76,7.88,1.38,15.77,2.16,23.65.2,2.08.56,4-2.39,4.19-2.77.16-2.57-2-2.73-3.7q-3.78-39.9-7.49-79.79c-.54-5.8-1.24-11.58-1.72-17.38-.21-2.56-1.5-3.66-3.9-4.06-9.46-1.59-18.79-3.63-27.21-8.56-1.64-1-2.4-.48-2.75,1.34-1,5.28-2.09,10.55-3.15,15.82-.47,2.34,1.09,3.5,2.64,4.76,14.63,12,24.32,27,28.42,45.52,2.78,12.54,2.76,25.22,1,37.89a10.76,10.76,0,0,1-12,9,11,11,0,0,1-9.42-12.15c.84-9.55,1.24-19.11-.59-28.59a56.51,56.51,0,0,0-10.88-24.2,73.4,73.4,0,0,1-1.79,15.9c-5.09,21.9-19.13,36.35-38.68,46-5.74,2.85-11.66.65-14.58-4.77-2.73-5.08-.8-11.4,4.81-14.55,7.61-4.29,14.79-9,20.1-16.15,9.48-12.72,9.33-27,6.71-41.61a7,7,0,0,0-2.14-3.33,37.32,37.32,0,0,1-10.25-19.57c-.67-3.24-1.86-5.09-5.54-4.75-6.54.6-12.39-.4-16.37-6.65A23.89,23.89,0,0,1,1.66,76.86a64.64,64.64,0,0,1,10-19.44c1.27-1.75,2.85-3.3,0-5.08-1.72-1-.91-2.74-.35-4,3.64-8.54,10-14.16,19-16.16,6-1.33,10.32,2.21,11,8.74.4,3.76,1.23,5.41,5.38,3.64,4.34-1.85,8.86-.08,13.3.22Z"/><path class="cls-2" d="M26.42,108.87c-.67-3.24-1.86-5.09-5.54-4.75-6.54.6-12.39-.4-16.37-6.65A23.89,23.89,0,0,1,1.66,76.86a64.64,64.64,0,0,1,10-19.44c1.27-1.75,2.85-3.3,0-5.08-1.72-1-.91-2.74-.35-4,3.64-8.54,10-14.16,19-16.16,6-1.33,10.32,2.21,11,8.74.4,3.76,1.23,5.41,5.38,3.64C51,42.71,27.78,116.28,26.42,108.87Z"/><path class="cls-2" d="M97.87,88c-.35-2-.35-4,2.55-4.15s2.63,2,2.7,3.73c.12,2.77.6,5.2,2.7,7.31a5.06,5.06,0,0,1,.93,5.52c-3.51,7.36-.93,14.78-.34,22.07,1.65,20.24,3.88,40.43,5.84,60.65.76,7.88,1.38,15.77,2.16,23.65.2,2.08.56,4-2.39,4.19-2.77.16-2.57-2-2.73-3.7q-3.78-39.9-7.49-79.79c-.54-5.8-1.24-11.58-1.72-17.38C99.87,107.57,98.28,90.63,97.87,88Z"/><path class="cls-1" d="M60,44.74c-7.43-3.67-13.13-8.8-14.72-17.4A22.41,22.41,0,0,1,62.88,1l.2,0C74.85-1.49,86.65,6.51,89.2,18.62,91.7,30.55,84,42.19,71.94,45.05c-4.11,1-8,0-12-.34Z"/></g></g></g></svg>